<?xml version="1.0" encoding="utf-8"?>
<!-- Generator: Adobe Illustrator 28.2.0, SVG Export Plug-In . SVG Version: 6.00 Build 0)  -->
<svg version="1.1" id="Layer_1" xmlns="http://www.w3.org/2000/svg" xmlns:xlink="http://www.w3.org/1999/xlink" x="0px" y="0px"
	 viewBox="0 0 512 512" style="enable-background:new 0 0 512 512;" xml:space="preserve">
<style type="text/css">
	.st0{fill:#06B6D4;stroke:#06B6D4;stroke-width:20;stroke-miterlimit:10;}
</style>
<path class="st0" d="M458.67,109.45c-6.58-4.05-15.2-2-19.26,4.57c-0.34,0.56-34.94,55.65-84.97,61.55
	c-27.54,3.25-55.62-9.16-83.5-36.86l-0.42-0.4c-56.17-51.36-110.78-46.52-146.71-33.42c-38.03,13.87-62.75,39.5-63.78,40.59
	c-5.33,5.6-5.12,14.46,0.48,19.79c5.6,5.33,14.46,5.12,19.79-0.48c0.21-0.22,21.16-21.95,53.1-33.6
	c41.59-15.17,81.3-5.89,118.01,27.59c30.37,30.12,62,45.32,94.19,45.32c4.09,0,8.19-0.25,12.29-0.74
	c63.54-7.6,103.69-71.94,105.37-74.67C467.31,122.1,465.25,113.5,458.67,109.45z"/>
<path class="st0" d="M458.67,219.49c-6.58-4.05-15.2-2-19.26,4.57c-0.34,0.56-34.94,55.65-84.97,61.55
	c-27.54,3.25-55.62-9.16-83.5-36.86l-0.42-0.4c-56.17-51.36-110.78-46.52-146.71-33.42c-38.03,13.87-62.75,39.5-63.78,40.59
	c-5.33,5.6-5.12,14.46,0.48,19.79c5.6,5.33,14.46,5.12,19.79-0.48c0.21-0.22,21.16-21.95,53.1-33.6
	c41.59-15.17,81.3-5.89,118.01,27.59c30.37,30.12,62,45.32,94.19,45.32c4.09,0,8.19-0.25,12.29-0.74
	c63.54-7.6,103.69-71.94,105.37-74.67C467.31,232.14,465.25,223.54,458.67,219.49z"/>
<path class="st0" d="M458.67,329.53c-6.58-4.05-15.2-2-19.26,4.57c-0.34,0.56-34.94,55.65-84.97,61.55
	c-27.54,3.25-55.62-9.16-83.5-36.86l-0.42-0.4c-56.17-51.36-110.78-46.52-146.71-33.42c-38.03,13.87-62.75,39.5-63.78,40.59
	c-5.33,5.6-5.12,14.46,0.48,19.79c5.6,5.33,14.46,5.12,19.79-0.48c0.21-0.22,21.16-21.95,53.1-33.6
	c41.59-15.17,81.3-5.89,118.01,27.59c30.37,30.12,62,45.32,94.19,45.32c4.09,0,8.19-0.25,12.29-0.74
	c63.54-7.6,103.69-71.94,105.37-74.67C467.31,342.18,465.25,333.58,458.67,329.53z"/>
<g>
</g>
<g>
</g>
<g>
</g>
<g>
</g>
<g>
</g>
<g>
</g>
<g>
</g>
<g>
</g>
<g>
</g>
<g>
</g>
<g>
</g>
<g>
</g>
<g>
</g>
<g>
</g>
<g>
</g>
</svg>
